<svg height="64" viewBox="0 0 64 64" width="64" xmlns="http://www.w3.org/2000/svg"><g fill="none" fill-rule="evenodd" transform="translate(5 7)"><path d="m52 26c0-14.359-11.641-26-26-26s-26 11.641-26 26 11.641 26 26 26 26-11.641 26-26" fill="#4baadc"/><path d="m14 20c-2.209 0-4 1.791-4 4v6h8v-6c0-2.209-1.791-4-4-4" fill="#fff"/><path d="m34 20c-3.313 0-6 2.687-6 6v12h12v-12c0-3.313-2.687-6-6-6" fill="#fff"/><path d="m23 20c-2.762 0-5 2.238-5 5v9h10v-9c0-2.762-2.238-5-5-5" fill="#fff"/><path d="m30 14c0 2.209 1.791 4 4 4s4-1.791 4-4-1.791-4-4-4-4 1.791-4 4" fill="#fff"/><path d="m20 15c0 1.657 1.343 3 3 3s3-1.343 3-3-1.343-3-3-3-3 1.343-3 3" fill="#fff"/><path d="m12 16c0 1.104.896 2 2 2s2-.896 2-2-.896-2-2-2-2 .896-2 2" fill="#fff"/><g stroke="#1e69a0" stroke-linecap="round" stroke-linejoin="round" stroke-width="2"><path d="m52 26c0 14.359-11.641 26-26 26s-26-11.641-26-26 11.641-26 26-26 26 11.641 26 26z"/><path d="m30 14c0 2.209 1.791 4 4 4s4-1.791 4-4-1.791-4-4-4-4 1.791-4 4z"/><path d="m20 15c0 1.657 1.343 3 3 3s3-1.343 3-3-1.343-3-3-3-3 1.343-3 3z"/><path d="m12 16c0 1.104.896 2 2 2s2-.896 2-2-.896-2-2-2-2 .896-2 2z"/><path d="m18 25c0-2.762 2.238-5 5-5s5 2.238 5 5v1c0-3.313 2.687-6 6-6s6 2.687 6 6v12h-12v-4h-10v-4h-8v-6c0-2.209 1.791-4 4-4s4 1.791 4 4z"/><path d="m18 30v-5"/><path d="m28 34v-8"/></g></g></svg>